<svg width="167" height="29" viewBox="0 0 167 29" fill="none" xmlns="http://www.w3.org/2000/svg">
<path d="M164.046 25.0739C165.136 25.0739 166.082 24.1619 166.091 23.0284C166.082 21.9119 165.136 21 164.046 21C162.921 21 161.992 21.9119 162 23.0284C161.992 24.1619 162.921 25.0739 164.046 25.0739Z" fill="#E31E1E"/>
<path d="M9.88103 2.55307L0 14.0576L9.88103 25.5601L12.2174 21.8829L5.55897 14.0556L12.2174 6.2283L9.88103 2.55307ZM14.2051 25.2854H18.5415L25.4359 2.76499H21.0974L14.2051 25.2854ZM30.119 2.55307L27.7826 6.23027L34.441 14.0576L27.7826 21.8848L30.119 25.562L40 14.0595L30.119 2.55307Z" fill="#E31E1E"/>
<path d="M58.1222 9.90909H55.5398V6.77273H52.4545V9.90909H50.5966V12.2955H52.4545V19.5739C52.4375 22.0369 54.2273 23.2472 56.5455 23.179C57.4233 23.1534 58.0284 22.983 58.3608 22.8722L57.8409 20.4602C57.6705 20.5028 57.321 20.5795 56.9375 20.5795C56.1619 20.5795 55.5398 20.3068 55.5398 19.0625V12.2955H58.1222V9.90909ZM60.7024 23H63.7876V15.304C63.7876 13.642 65.0405 12.4659 66.7365 12.4659C67.2564 12.4659 67.9041 12.5597 68.1683 12.6449V9.80682C67.8871 9.75568 67.4013 9.72159 67.0604 9.72159C65.5604 9.72159 64.3075 10.5739 63.8303 12.0909H63.6939V9.90909H60.7024V23ZM73.7273 23.2642C75.7812 23.2642 77.0085 22.3011 77.571 21.2017H77.6733V23H80.6392V14.2386C80.6392 10.7784 77.8182 9.73864 75.321 9.73864C72.5682 9.73864 70.4545 10.9659 69.7727 13.3523L72.6534 13.7614C72.9602 12.8665 73.8295 12.0994 75.3381 12.0994C76.7699 12.0994 77.554 12.8324 77.554 14.1193V14.1705C77.554 15.0568 76.625 15.0994 74.3153 15.3466C71.7756 15.6193 69.3466 16.3778 69.3466 19.3267C69.3466 21.9006 71.2301 23.2642 73.7273 23.2642ZM74.5284 20.9972C73.2415 20.9972 72.321 20.4091 72.321 19.2756C72.321 18.0909 73.3523 17.5966 74.733 17.4006C75.5426 17.2898 77.1619 17.0852 77.5625 16.7614V18.304C77.5625 19.7614 76.3864 20.9972 74.5284 20.9972ZM94.9659 9.90909H91.6847L88.6676 19.6335H88.5312L85.5227 9.90909H82.233L86.8949 23H90.304L94.9659 9.90909ZM102.451 23.2557C105.502 23.2557 107.599 21.7642 108.144 19.4886L105.263 19.1648C104.846 20.2727 103.823 20.8523 102.494 20.8523C100.499 20.8523 99.1783 19.5398 99.1527 17.2983H108.272V16.3523C108.272 11.7585 105.511 9.73864 102.289 9.73864C98.5391 9.73864 96.093 12.4915 96.093 16.5312C96.093 20.6392 98.505 23.2557 102.451 23.2557ZM99.1612 15.2188C99.255 13.5483 100.491 12.142 102.332 12.142C104.104 12.142 105.298 13.4375 105.315 15.2188H99.1612ZM113.967 5.54545H110.882V23H113.967V5.54545ZM117.14 23H120.225V9.90909H117.14V23ZM118.691 8.05114C119.671 8.05114 120.472 7.30114 120.472 6.38068C120.472 5.4517 119.671 4.7017 118.691 4.7017C117.702 4.7017 116.901 5.4517 116.901 6.38068C116.901 7.30114 117.702 8.05114 118.691 8.05114ZM126.483 15.3295C126.483 13.4375 127.625 12.3466 129.253 12.3466C130.847 12.3466 131.801 13.3949 131.801 15.142V23H134.886V14.6648C134.895 11.5284 133.105 9.73864 130.403 9.73864C128.443 9.73864 127.097 10.6761 126.5 12.1335H126.347V9.90909H123.398V23H126.483V15.3295ZM143.716 28.1818C147.253 28.1818 149.861 26.5625 149.861 23.2131V9.90909H146.818V12.0739H146.648C146.179 11.1278 145.199 9.73864 142.889 9.73864C139.864 9.73864 137.486 12.108 137.486 16.4119C137.486 20.6818 139.864 22.8125 142.881 22.8125C145.122 22.8125 146.17 21.6108 146.648 20.6477H146.801V23.1278C146.801 25.054 145.523 25.8466 143.767 25.8466C141.909 25.8466 141.091 24.9688 140.716 24.2017L137.938 24.875C138.5 26.7074 140.384 28.1818 143.716 28.1818ZM143.741 20.392C141.705 20.392 140.631 18.8068 140.631 16.3949C140.631 14.017 141.688 12.2699 143.741 12.2699C145.727 12.2699 146.818 13.9148 146.818 16.3949C146.818 18.892 145.71 20.392 143.741 20.392Z" fill="#F8F8F8"/>
</svg>
